<svg xmlns="http://www.w3.org/2000/svg" width="512" height="512" viewBox="0 0 512 512">
  <defs>
    <linearGradient id="g" x1="0" y1="0" x2="1" y2="1">
      <stop offset="0" stop-color="#22c55e"/>
      <stop offset="1" stop-color="#facc15"/>
    </linearGradient>
  </defs>
  <rect x="64" y="64" width="384" height="384" rx="96" fill="#0b1220"/>
  <path d="M256 132c72 0 124 52 124 124s-52 124-124 124-124-52-124-124 52-124 124-124z" fill="url(#g)" opacity="0.14"/>
  <path d="M256 156c58 0 100 42 100 100s-42 100-100 100-100-42-100-100 42-100 100-100z" fill="url(#g)" opacity="0.28"/>
  <path d="M256 182c44 0 74 30 74 74s-30 74-74 74-74-30-74-74 30-74 74-74z" fill="url(#g)"/>
  <path d="M200 270l40-92h32l40 92h-28l-8-20h-40l-8 20h-28zm48-44h24l-12-30-12 30z" fill="#0b1220" opacity="0.92"/>
  <path d="M184 322h144v26H184z" fill="url(#g)" opacity="0.9"/>
</svg>